Coordinates
version=1
nRows=17
nColumns=40
inDegrees=yes

Units are S.I. units (second, meters, Newtons, ...)
Angles are in degrees.

endheader
time	pelvis_tilt	pelvis_list	pelvis_rotation	pelvis_tx	pelvis_ty	pelvis_tz	hip_flexion_r	hip_adduction_r	hip_rotation_r	knee_angle_r	knee_angle_r_beta	ankle_angle_r	subtalar_angle_r	mtp_angle_r	hip_flexion_l	hip_adduction_l	hip_rotation_l	knee_angle_l	knee_angle_l_beta	ankle_angle_l	subtalar_angle_l	mtp_angle_l	lumbar_extension	lumbar_bending	lumbar_rotation	arm_flex_r	arm_add_r	arm_rot_r	elbow_flex_r	pro_sup_r	wrist_flex_r	wrist_dev_r	arm_flex_l	arm_add_l	arm_rot_l	elbow_flex_l	pro_sup_l	wrist_flex_l	wrist_dev_l
     53.36250000	     -1.55265039	     -5.67729830	     -3.23389759	      1.11647754	      0.91525261	      0.38724627	     27.89594723	     -6.09230544	      0.83575815	     66.15683301	     66.15683301	      0.10171387	    -14.29753385	     -1.26285920	     17.96401197	     -4.72526147	     -4.35311276	     35.24959850	     35.24959850	     21.21865195	    -17.77858852	      7.75776827	    -11.66285239	      7.61993133	      2.65208364	      6.39569104	    -12.35001421	    -11.59701482	     25.10088245	     47.00053111	      0.00000000	      0.00000000	     23.07630877	    -16.50516442	     16.99409277	     39.18922611	     45.62348330	      0.00000000	      0.00000000
     53.38271429	     -1.60039001	     -5.61234234	     -3.79815615	      1.11587071	      0.91640417	      0.38788545	     28.54489703	     -5.93008194	      0.87888045	     65.03711667	     65.03711667	      0.99173708	    -14.80080518	     -1.30098366	     17.27286717	     -4.75901084	     -4.91161399	     34.51973837	     34.51973837	     21.26553305	    -17.71236116	      7.69309196	    -11.67300635	      7.65807150	      2.65593992	      3.07926206	    -12.29659211	    -11.77163983	     23.59424210	     47.04885848	      0.00000000	      0.00000000	     24.92707274	    -16.95098001	     16.08094570	     40.75706086	     45.75866794	      0.00000000	      0.00000000
     53.40292857	     -1.75009415	     -5.54281649	     -4.37219096	      1.11503183	      0.91811931	      0.38893968	     29.07947951	     -5.75234836	      0.76960310	     63.16284121	     63.16284121	      2.06532448	    -15.14558559	     -1.45908240	     16.52955898	     -4.81250854	     -5.53193013	     33.45145003	     33.45145003	     21.10933792	    -17.56900496	      7.50587375	    -11.62240996	      7.66496734	      2.69524323	     -0.09145133	    -12.20875724	    -11.98549792	     22.39861279	     47.08963185	      0.00000000	      0.00000000	     26.65733108	    -17.41166768	     14.81624353	     42.67262238	     45.92891187	      0.00000000	      0.00000000
     53.42314286	     -1.98246609	     -5.45106264	     -4.99637289	      1.11403905	      0.92035206	      0.39046927	     29.48669521	     -5.56024736	      0.55623447	     60.56037742	     60.56037742	      3.12575040	    -15.24282958	     -1.68962974	     15.69273576	     -4.86324357	     -6.24689212	     32.02738058	     32.02738058	     20.81809310	    -17.32504331	      7.33357277	    -11.51129201	      7.62904617	      2.62173898	     -3.02091075	    -12.09692245	    -12.16453554	     21.53594986	     47.11498921	      0.00000000	      0.00000000	     28.28102948	    -17.97872429	     13.49675639	     44.58979692	     46.09781651	      0.00000000	      0.00000000
     53.44335714	     -2.42867763	     -5.38179489	     -5.62720331	      1.11277691	      0.92246096	      0.39232573	     29.88544263	     -5.29969987	      0.26291486	     57.26372997	     57.26372997	      3.89491007	    -15.15210184	     -2.85584546	     15.02712759	     -4.99485416	     -7.07138817	     30.41276286	     30.41276286	     19.87825915	    -17.14207917	      5.69563817	    -11.30267596	      7.62751691	      2.49925055	     -6.16987153	    -11.95911802	    -12.66989388	     22.09765427	     47.10233483	      0.00000000	      0.00000000	     29.06140465	    -18.45107191	      9.81425818	     48.61047422	     46.49988380	      0.00000000	      0.00000000
     53.46357143	     -2.79829691	     -5.32398375	     -6.25554381	      1.11151312	      0.92490444	      0.39456186	     29.92006237	     -4.99909398	     -0.13412553	     53.30245769	     53.30245769	      4.47320444	    -14.69133237	     -4.12698853	     14.13584675	     -5.11541605	     -7.90898999	     28.54302009	     28.54302009	     18.95525034	    -16.86143328	      4.34030498	    -11.18039297	      7.63013755	      2.04420275	     -8.68168778	    -11.86397917	    -12.75356295	     22.59050667	     47.05562683	      0.00000000	      0.00000000	     29.98359789	    -19.14698323	      6.54369921	     51.67087358	     46.82992272	      0.00000000	      0.00000000
     53.48378571	     -3.24142022	     -5.20676536	     -6.90913554	      1.11009335	      0.92708180	      0.39710235	     29.85149651	     -4.68284591	     -0.48219584	     48.90452348	     48.90452348	      5.05862703	    -13.59592735	     -4.79963654	     13.37104055	     -5.18403035	     -8.76249205	     26.75360880	     26.75360880	     18.27057250	    -16.46332866	      3.58743217	    -10.99000514	      7.54697556	      1.95198001	    -11.06942755	    -11.78984748	    -12.59643703	     22.95467896	     46.99137615	      0.00000000	      0.00000000	     31.26553865	    -19.81169277	      4.62129141	     54.40631873	     47.03023579	      0.00000000	      0.00000000
     53.50400000	     -3.65419414	     -5.08845060	     -7.55044936	      1.10869669	      0.92901828	      0.39995052	     29.53380573	     -4.34190664	     -0.88165380	     44.17333849	     44.17333849	      5.65573941	    -11.80094851	     -4.71098871	     12.62377608	     -5.26301617	     -9.63021628	     25.08524077	     25.08524077	     17.91106658	    -15.86903437	      3.54775910	    -10.82208010	      7.45583246	      2.06095784	    -13.02516350	    -11.68153527	    -12.57000516	     22.80057997	     46.97174204	      0.00000000	      0.00000000	     33.00573444	    -20.56112233	      3.69534556	     56.27341954	     47.14402695	      0.00000000	      0.00000000
     53.52421429	     -4.14724148	     -4.94209799	     -8.16416264	      1.10735678	      0.93018153	      0.40299951	     29.13457220	     -4.02673489	     -1.38117351	     39.28204298	     39.28204298	      5.99213826	     -9.38880534	     -4.62629823	     12.04209209	     -5.35683245	    -10.57837392	     23.51488224	     23.51488224	     16.95397428	    -15.45625618	      1.80670364	    -10.66197787	      7.36086204	      1.80687247	    -15.34601535	    -11.65207478	    -12.42961934	     25.14159411	     46.80827778	      0.00000000	      0.00000000	     33.55918679	    -21.38297539	      0.99127395	     60.60766105	     47.41087838	      0.00000000	      0.00000000
     53.54442857	     -4.47995216	     -4.75068544	     -8.76437242	      1.10620204	      0.93104467	      0.40630888	     28.41550804	     -3.73688581	     -1.86435654	     34.36928438	     34.36928438	      6.17054735	     -6.43997874	     -3.97183935	     11.42757060	     -5.38352937	    -11.42707268	     22.27959226	     22.27959226	     16.74212873	    -14.85620723	      1.52384378	    -10.60131412	      7.17690210	      2.06643503	    -16.81515630	    -11.50199401	    -12.30162650	     25.27643820	     46.77085624	      0.00000000	      0.00000000	     35.32276758	    -22.00275342	      0.10100310	     62.65500629	     47.52057870	      0.00000000	      0.00000000
     53.56464286	     -4.95667080	     -4.56101020	     -9.26962835	      1.10525722	      0.93108999	      0.40976966	     27.73316396	     -3.36676386	     -2.28783065	     29.61368447	     29.61368447	      6.04979261	     -3.69995935	     -2.96408612	     11.15229707	     -5.45462819	    -12.10237968	     21.39084715	     21.39084715	     16.58011262	    -14.39519250	      1.19026875	    -10.26913726	      7.04555946	      2.15502447	    -18.01799951	    -11.36929073	    -12.29766878	     25.59379311	     46.73973300	      0.00000000	      0.00000000	     36.81258579	    -22.64395152	     -0.71266750	     64.54390048	     47.62055484	      0.00000000	      0.00000000
     53.58485714	     -5.22673410	     -4.21652178	     -9.77509446	      1.10479287	      0.93067368	      0.41333248	     27.08226405	     -3.30874854	     -2.96731658	     25.81270373	     25.81270373	      6.79911074	      0.19731188	      0.35459095	     10.62989950	     -5.34762167	    -12.99322660	     20.42052276	     20.42052276	     15.74795243	    -14.12531630	     -1.19690874	    -10.27643645	      6.77796281	      1.69420383	    -19.55850520	    -11.44849758	    -11.83476820	     29.02320612	     46.50863307	      0.00000000	      0.00000000	     36.76648841	    -23.55688236	     -3.81326464	     69.72421811	     47.91139411	      0.00000000	      0.00000000
     53.60507143	     -5.44464246	     -3.92877446	    -10.20072705	      1.10466224	      0.93000238	      0.41716060	     26.24378616	     -3.10721909	     -3.45056154	     22.21216247	     22.21216247	      6.49011157	      3.07892141	      1.56821931	     10.25078595	     -5.30634814	    -13.59983353	     19.93273244	     19.93273244	     15.78896502	    -13.78480640	     -1.59200979	    -10.16011116	      6.55984115	      2.01447988	    -20.17246875	    -11.28028762	    -11.63109989	     29.26045761	     46.47247090	      0.00000000	      0.00000000	     38.28930987	    -23.95019187	     -4.45007834	     71.54186372	     47.99499518	      0.00000000	      0.00000000
     53.62528571	     -5.67977560	     -3.56940104	    -10.57597039	      1.10499306	      0.92893784	      0.42109907	     25.72482862	     -3.05345714	     -4.02786248	     19.72899784	     19.72899784	      6.71798006	      5.97286256	      4.24077522	      9.90819765	     -5.19870319	    -14.21266376	     19.46193861	     19.46193861	     15.49555653	    -13.62760896	     -2.97333777	    -10.00703467	      6.27948123	      1.63691844	    -20.69950485	    -11.36251984	    -10.97902513	     31.22905291	     46.31645615	      0.00000000	      0.00000000	     38.48600590	    -24.67319863	     -6.57652021	     75.28067407	     48.19175796	      0.00000000	      0.00000000
     53.64550000	     -5.81664628	     -3.26999297	    -10.90190303	      1.10575292	      0.92796389	      0.42532157	     25.04364634	     -2.89091404	     -4.31859580	     17.61070090	     17.61070090	      6.24620020	      7.92099648	      4.92602505	      9.49720502	     -5.12516865	    -14.60196788	     19.15540047	     19.15540047	     15.66520646	    -13.46509039	     -3.23198214	     -9.85147669	      6.08964320	      2.01305337	    -20.79387861	    -11.20047755	    -10.79310644	     31.48808846	     46.28798235	      0.00000000	      0.00000000	     39.66089767	    -24.83232342	     -7.12855125	     76.93553737	     48.26376235	      0.00000000	      0.00000000
     53.66571429	     -5.95047678	     -2.91306330	    -11.13635533	      1.10697117	      0.92691018	      0.42970430	     24.55873568	     -2.83066833	     -4.48122596	     16.32267998	     16.32267998	      5.85162842	      9.25054377	      5.22635682	      9.12645725	     -4.99312634	    -14.89993318	     18.94256245	     18.94256245	     15.86129679	    -13.36267491	     -3.45700873	     -9.59289292	      5.83134762	      2.22002156	    -20.61650745	    -11.02333016	    -10.70878074	     31.90732606	     46.26316275	      0.00000000	      0.00000000	     40.61481983	    -24.96204081	     -7.73409190	     78.53802276	     48.33769358	      0.00000000	      0.00000000
     53.68592857	     -5.99011409	     -2.69673693	    -11.37839514	      1.10880591	      0.92611098	      0.43434403	     24.00251286	     -2.69864373	     -4.80788849	     15.53568483	     15.53568483	      5.11375459	     10.51126432	      3.77705558	      8.47290104	     -4.96178224	    -15.18695778	     18.49433719	     18.49433719	     15.84681823	    -13.35550893	     -3.98729856	     -9.53143473	      5.77479186	      1.59469990	    -20.14972798	    -11.35951463	     -9.90266752	     33.42149330	     46.13445822	      0.00000000	      0.00000000	     39.65369626	    -25.54909381	    -10.55598337	     82.81416973	     48.57449114	      0.00000000	      0.00000000
